Coordinates
version=1
nRows=18
nColumns=22
inDegrees=yes

Units are S.I. units (second, meters, Newtons, ...)
If the header above contains a line with 'inDegrees', this indicates whether rotational values are in degrees (yes) or radians (no).

endheader
time	pelvis_tilt	pelvis_list	pelvis_rotation	pelvis_tx	pelvis_ty	pelvis_tz	hip_flexion_r	hip_adduction_r	hip_rotation_r	knee_angle_r	ankle_angle_r	subtalar_angle_r	hip_flexion_l	hip_adduction_l	hip_rotation_l	knee_angle_l	ankle_angle_l	subtalar_angle_l	lumbar_extension	lumbar_bending	lumbar_rotation
      1.92000000	    -11.60799963	     -0.03840460	     -2.51629444	     -0.56087181	      0.97430300	      0.32267852	     33.06156582	     -2.40007160	     -2.27188777	    -41.23329463	     17.60621616	     -2.20442934	     17.45226870	      5.16506385	     -2.20759950	    -18.53987924	     19.50406578	     -5.89205028	      0.79369683	      0.22974733	      0.71014934
      1.93000000	    -11.63722594	     -0.11881280	     -2.41171664	     -0.55964789	      0.97427108	      0.32222670	     33.35527490	     -2.30940444	     -2.41244620	    -40.94065795	     17.48113652	     -2.08287121	     17.41409214	      5.12840848	     -2.12650531	    -18.55812560	     19.56528813	     -5.89665180	      0.77235756	      0.28293397	      0.59961875
      1.94000000	    -11.66445193	     -0.19033427	     -2.33370807	     -0.55837693	      0.97422575	      0.32182762	     33.64872177	     -2.21924404	     -2.54359091	    -40.58479068	     17.33501828	     -1.97822851	     17.37192587	      5.09439872	     -2.05944101	    -18.57899437	     19.63523168	     -5.89937305	      0.74582057	      0.32909859	      0.51612116
      1.95000000	    -11.69177483	     -0.26488059	     -2.26599875	     -0.55706806	      0.97416478	      0.32146937	     33.93749381	     -2.12378034	     -2.67684868	    -40.16250064	     17.18207612	     -1.88117940	     17.33754391	      5.05278156	     -2.00112770	    -18.62038088	     19.71532140	     -5.90250060	      0.71475343	      0.37914846	      0.44797904
      1.96000000	    -11.71363737	     -0.33450450	     -2.21780260	     -0.55571113	      0.97409859	      0.32116726	     34.22016324	     -2.02308042	     -2.79492391	    -39.68589515	     17.02167792	     -1.79969575	     17.29636328	      5.01066597	     -1.95450560	    -18.66521976	     19.80344155	     -5.90526622	      0.67291184	      0.42436625	      0.40346963
      1.97000000	    -11.73041223	     -0.40206996	     -2.18600121	     -0.55431127	      0.97402308	      0.32091918	     34.49810404	     -1.91433223	     -2.89704897	    -39.16177687	     16.86290381	     -1.73087827	     17.25150252	      4.96463781	     -1.92334292	    -18.71896373	     19.90110522	     -5.90771728	      0.62103790	      0.46703861	      0.37782571
      1.98000000	    -11.74300779	     -0.46551805	     -2.17470698	     -0.55287102	      0.97393941	      0.32071798	     34.77368827	     -1.79742155	     -2.97546127	    -38.59451473	     16.69722066	     -1.67407384	     17.20282189	      4.91745832	     -1.90536751	    -18.78060915	     20.00616710	     -5.90958041	      0.55966692	      0.51059661	      0.37627029
      1.99000000	    -11.75404050	     -0.52722235	     -2.18113871	     -0.55139498	      0.97384328	      0.32059256	     35.05111629	     -1.66634743	     -3.02974672	    -37.99332876	     16.52459393	     -1.62755143	     17.15330392	      4.86424367	     -1.90557310	    -18.84896809	     20.11795541	     -5.91259345	      0.49245688	      0.54996193	      0.39253975
      2.00000000	    -11.76577780	     -0.58697618	     -2.20721028	     -0.54987664	      0.97373061	      0.32053972	     35.33260780	     -1.52079075	     -3.05705371	    -37.36181342	     16.33661576	     -1.58843305	     17.10510930	      4.80506400	     -1.92125122	    -18.92680362	     20.23401863	     -5.91925061	      0.42314961	      0.58683872	      0.42728775
      2.01000000	    -11.78058078	     -0.64753697	     -2.24724478	     -0.54832567	      0.97360054	      0.32055486	     35.62024107	     -1.35725467	     -3.05188470	    -36.70455980	     16.12418680	     -1.55234308	     17.06008002	      4.73836411	     -1.95027748	    -19.00998448	     20.35450877	     -5.93166591	      0.35372239	      0.62532753	      0.47741838
      2.02000000	    -11.79776675	     -0.70549322	     -2.29899680	     -0.54673081	      0.97345417	      0.32062786	     35.91342534	     -1.18195820	     -3.01682273	    -36.02842011	     15.88757157	     -1.51350415	     17.01490414	      4.66933664	     -1.98688677	    -19.09531630	     20.47619547	     -5.94946938	      0.28371806	      0.66084517	      0.53965145
      2.03000000	    -11.81633597	     -0.76085323	     -2.35761613	     -0.54508732	      0.97329649	      0.32075103	     36.20839183	     -0.99874135	     -2.95668289	    -35.33403848	     15.62589477	     -1.46349240	     16.96657017	      4.59855403	     -2.02826393	    -19.17879054	     20.60089318	     -5.97026612	      0.21464542	      0.69218044	      0.60863353
      2.04000000	    -11.83580608	     -0.81462519	     -2.41991911	     -0.54338923	      0.97313021	      0.32090820	     36.50340362	     -0.81025782	     -2.87687294	    -34.62618793	     15.34115624	     -1.39194286	     16.91203602	      4.52639427	     -2.07414748	    -19.25557676	     20.73076549	     -5.99103407	      0.14482536	      0.72434993	      0.67825187
      2.05000000	    -11.85420042	     -0.86512600	     -2.48006368	     -0.54163038	      0.97296093	      0.32110278	     36.79520536	     -0.62399374	     -2.79010579	    -33.90859797	     15.04174425	     -1.28885282	     16.84592541	      4.45492188	     -2.11924082	    -19.31950403	     20.86332369	     -6.00866121	      0.07348414	      0.74891880	      0.74832698
      2.06000000	    -11.86998016	     -0.91239440	     -2.53851599	     -0.53980170	      0.97278863	      0.32130485	     37.08110084	     -0.44453117	     -2.70456910	    -33.18554914	     14.73955535	     -1.14459059	     16.76703102	      4.38638500	     -2.16639069	    -19.37131297	     21.00047659	     -6.02262085	      0.00041892	      0.77431274	      0.81159883
      2.07000000	    -11.88294412	     -0.95684800	     -2.59169981	     -0.53789684	      0.97261313	      0.32153333	     37.35883587	     -0.27382102	     -2.63250180	    -32.45577077	     14.44470517	     -0.95235728	     16.67363296	      4.31979138	     -2.21244634	    -19.41114534	     21.14235797	     -6.03295209	     -0.07364197	      0.79336878	      0.86670128
      2.08000000	    -11.88705874	     -1.00480803	     -2.63877352	     -0.53589598	      0.97243537	      0.32176380	     37.61981645	     -0.11169431	     -2.58644816	    -31.72530653	     14.20222880	     -0.63297653	     16.56460718	      4.24630004	     -2.28839556	    -19.44852162	     21.30158860	     -6.03848248	     -0.15286381	      0.82239098	      0.88545265
      2.09000000	    -11.88856963	     -1.03592460	     -2.67560368	     -0.53381518	      0.97224633	      0.32197994	     37.87904159	      0.01836386	     -2.57464364	    -31.00593758	     13.96437597	     -0.31125671	     16.43701452	      4.19866836	     -2.32057998	    -19.46478325	     21.44647589	     -6.03976833	     -0.23162284	      0.83150740	      0.90971086
